<?xml version="1.0" encoding="utf-8"?>
<!-- Generator: Adobe Illustrator 17.0.0, SVG Export Plug-In . SVG Version: 6.00 Build 0)  -->
<!DOCTYPE svg PUBLIC "-//W3C//DTD SVG 1.1//EN" "http://www.w3.org/Graphics/SVG/1.1/DTD/svg11.dtd">
<svg version="1.1" id="Layer_1" xmlns="http://www.w3.org/2000/svg" xmlns:xlink="http://www.w3.org/1999/xlink" x="0px" y="0px"
	 width="170px" height="270px" viewBox="0 0 170 270" enable-background="new 0 0 170 270" xml:space="preserve">
<g>
	<g>
		<path fill="#CFE6DF" d="M11.761,80C6.654,80,2.5,75.936,2.5,70.939V24.07c0-5.001,4.154-9.07,9.261-9.07h146.478
			c5.106,0,9.262,4.069,9.262,9.07v46.87c0,4.996-4.155,9.061-9.262,9.061H11.761z"/>
		<path fill="#CFE6DF" d="M158.238,17.5c3.729,0,6.762,2.946,6.762,6.57v46.87c0,3.618-3.033,6.56-6.762,6.56H11.761
			C8.033,77.5,5,74.558,5,70.94V24.07c0-3.624,3.033-6.57,6.761-6.57H158.238 M158.238,12.5H11.761C5.276,12.5,0,17.69,0,24.07
			v46.87C0,77.314,5.276,82.5,11.761,82.5h146.477c6.486,0,11.762-5.186,11.762-11.56V24.07C170,17.69,164.724,12.5,158.238,12.5
			L158.238,12.5z"/>
	</g>
</g>
<g>
	<g>
		<path fill="#5FA9F2" d="M158.275,7.5H11.724C8.017,7.5,5,10.446,5,14.07v46.87c0,3.618,3.017,6.56,6.724,6.56h146.552
			c3.708,0,6.725-2.942,6.725-6.56V14.07C165,10.446,161.983,7.5,158.275,7.5z"/>
	</g>
	<rect x="15" y="8.5" fill="#FAFAFA" width="140.881" height="40"/>
	<g>
		<path fill="#66CCFF" d="M26.847,13.898h3.013c0.197,0,0.358-0.161,0.358-0.35c0-0.198-0.161-0.358-0.358-0.358h-3.013
			c-0.191,0-0.355,0.16-0.355,0.358C26.491,13.737,26.655,13.898,26.847,13.898z M28.353,40.158c-0.862,0-1.566,0.701-1.566,1.562
			c0,0.859,0.703,1.558,1.566,1.558c0.866,0,1.567-0.699,1.567-1.558C29.92,40.859,29.219,40.158,28.353,40.158z M20.666,38.822
			h15.376V16.206H20.666V38.822z M69.965,31.395c-0.729,0-1.387,0.239-1.981,0.72c-0.595,0.488-0.98,1.118-1.164,1.899
			c-0.09,0.365-0.135,0.662-0.135,0.899v2.203c0,0.963,0.291,1.777,0.888,2.44c0.592,0.656,1.364,0.99,2.311,0.99
			c1.11,0,1.983-0.423,2.603-1.279c0.62-0.853,0.928-1.977,0.928-3.379c0-1.285-0.288-2.348-0.873-3.181
			C71.899,31.839,71.043,31.395,69.965,31.395z M123.888,31.213c-1.183,0-2.087,0.523-2.704,1.573
			c-0.535,0.865-0.797,1.921-0.797,3.171c0,1.217,0.262,2.255,0.797,3.123c0.633,1.049,1.527,1.571,2.683,1.571
			c1.124,0,2.013-0.529,2.647-1.604c0.552-0.878,0.826-1.931,0.826-3.141s-0.264-2.254-0.79-3.12
			C125.921,31.735,125.039,31.213,123.888,31.213z M84.584,31.395c-0.732,0-1.387,0.239-1.982,0.72
			c-0.593,0.488-0.982,1.118-1.166,1.899c-0.091,0.365-0.134,0.662-0.134,0.899v2.203c0,0.963,0.292,1.777,0.888,2.44
			c0.592,0.656,1.364,0.99,2.309,0.99c1.119,0,1.984-0.423,2.605-1.279c0.622-0.853,0.934-1.977,0.934-3.379
			c0-1.285-0.294-2.348-0.876-3.181C86.518,31.839,85.659,31.395,84.584,31.395z M54.037,26.662h-0.052
			c-0.186,0.781-0.474,1.931-0.879,3.458l-1.533,4.792h4.953l-1.554-4.792C54.805,29.628,54.491,28.475,54.037,26.662z
			 M146.308,31.069c-0.965,0-1.749,0.41-2.354,1.203c-0.492,0.633-0.787,1.397-0.876,2.281h6.158
			c0.016-0.868-0.172-1.618-0.572-2.257C148.15,31.484,147.364,31.069,146.308,31.069z M67.074,18.013
			c0.041-0.126,0.041-0.253,0.041-0.379v-0.936c-1.224-0.014-2.391,0.237-2.391,1.272c0,0.672,0.436,0.981,0.984,0.981
			C66.412,18.951,66.904,18.502,67.074,18.013z M50.943,13.73c-0.184-0.574-0.338-1.217-0.479-1.763h-0.029
			c-0.14,0.546-0.295,1.202-0.45,1.763l-0.73,2.323h2.434L50.943,13.73z M158.275,0H11.724C8.017,0,5,2.999,5,6.688v41.634
			C5,52.005,8.017,55,11.724,55h146.552c3.708,0,6.725-2.995,6.725-6.678V6.688C165,2.999,161.983,0,158.275,0z M149.037,13.059
			c2.223,0,2.955,1.818,2.955,3.316c0,0.322-0.028,0.575-0.057,0.728h-4.587c0.042,1.231,0.999,1.762,2.11,1.762
			c0.802,0,1.365-0.124,1.899-0.307l0.253,1.175c-0.591,0.252-1.406,0.433-2.392,0.433c-2.223,0-3.531-1.356-3.531-3.441
			C145.689,14.836,146.842,13.059,149.037,13.059z M121.576,13.213l0.084,1.022h0.043c0.309-0.532,1.055-1.175,2.194-1.175
			c1.196,0,2.435,0.769,2.435,2.923v4.044h-1.73v-3.848c0-0.979-0.366-1.721-1.309-1.721c-0.689,0-1.168,0.49-1.352,1.008
			c-0.057,0.14-0.084,0.35-0.084,0.546v4.015h-1.73v-4.784c0-0.785-0.028-1.441-0.057-2.03H121.576z M103.403,13.059
			c2.223,0,2.955,1.818,2.955,3.316c0,0.322-0.028,0.575-0.057,0.728h-4.587c0.042,1.231,0.999,1.762,2.11,1.762
			c0.802,0,1.364-0.124,1.899-0.307l0.253,1.175c-0.591,0.252-1.406,0.433-2.392,0.433c-2.223,0-3.531-1.356-3.531-3.441
			C100.055,14.836,101.208,13.059,103.403,13.059z M96.311,10.093h1.729v9.934h-1.729V10.093z M82.586,14.275
			c-0.676,0-1.379,0.212-1.843,0.505l-0.338-1.12c0.506-0.308,1.393-0.601,2.476-0.601c2.195,0,2.829,1.385,2.829,2.882v2.449
			c0,0.616,0.027,1.217,0.111,1.637H84.26l-0.126-0.755h-0.042c-0.408,0.531-1.126,0.91-2.026,0.91c-1.38,0-2.153-0.995-2.153-2.03
			c0-1.707,1.533-2.589,4.066-2.575v-0.112C83.979,15.018,83.795,14.275,82.586,14.275z M72.354,10.372
			c0.591,0,0.957,0.407,0.971,0.937c0,0.504-0.38,0.925-0.985,0.925c-0.577,0-0.956-0.42-0.956-0.925
			C71.383,10.779,71.776,10.372,72.354,10.372z M73.211,13.213v6.814h-1.729v-6.814H73.211z M49.409,10.596h2.209l3.081,9.431
			h-1.871l-0.857-2.673h-2.998l-0.816,2.673h-1.787L49.409,10.596z M37.885,41.87c0,1.662-1.362,3.009-3.032,3.009H21.857
			c-1.672,0-3.034-1.347-3.034-3.009V13.151c0-1.662,1.362-3.013,3.034-3.013h12.995c1.67,0,3.032,1.351,3.032,3.013V41.87z
			 M58.774,42.559l-1.723-5.385h-5.996l-1.644,5.385h-3.062l5.934-18.348h3.672l5.97,18.348H58.774z M59.445,20.027h-1.703
			l-2.547-6.814h1.872l1.11,3.457c0.197,0.601,0.338,1.147,0.465,1.707h0.043c0.126-0.56,0.281-1.093,0.464-1.707l1.098-3.457h1.815
			L59.445,20.027z M63.008,18.152c0-1.707,1.533-2.589,4.066-2.575v-0.112c0-0.448-0.184-1.191-1.394-1.191
			c-0.676,0-1.378,0.212-1.843,0.505L63.5,13.66c0.506-0.308,1.393-0.601,2.477-0.601c2.194,0,2.828,1.385,2.828,2.882v2.449
			c0,0.616,0.027,1.217,0.112,1.637h-1.562l-0.126-0.755h-0.042c-0.408,0.531-1.126,0.91-2.026,0.91
			C63.781,20.182,63.008,19.188,63.008,18.152z M74.582,41.121c-1.099,1.157-2.469,1.738-4.1,1.738
			c-1.766,0-3.029-0.625-3.798-1.881v6.948H63.73V33.677c0-1.415-0.038-2.862-0.113-4.348h2.601l0.163,2.096h0.052
			c0.99-1.573,2.484-2.362,4.494-2.362c1.569,0,2.875,0.612,3.931,1.849c1.046,1.232,1.572,2.859,1.572,4.872
			C76.43,38.04,75.815,39.812,74.582,41.121z M77.658,20.027h-1.729v-9.934h1.729V20.027z M89.197,41.121
			c-1.102,1.157-2.466,1.738-4.101,1.738c-1.761,0-3.026-0.625-3.795-1.881v6.948h-2.957V33.677c0-1.415-0.038-2.862-0.109-4.348
			h2.594L81,31.424h0.051c0.992-1.573,2.483-2.362,4.49-2.362c1.57,0,2.88,0.612,3.929,1.849c1.052,1.232,1.575,2.859,1.575,4.872
			C91.045,38.04,90.431,39.812,89.197,41.121z M91.228,20.182c-0.887,0-1.675-0.336-2.167-1.176h-0.028l-0.084,1.021h-1.478
			c0.028-0.461,0.057-1.216,0.057-1.917v-8.017h1.729v4.057h0.028c0.422-0.658,1.168-1.091,2.195-1.091
			c1.675,0,2.87,1.385,2.856,3.456C94.337,18.964,92.775,20.182,91.228,20.182z M106.107,41.224
			c-1.208,1.072-2.881,1.604-5.027,1.604c-1.989,0-3.58-0.383-4.781-1.141l0.687-2.449c1.295,0.758,2.717,1.143,4.265,1.143
			c1.118,0,1.982-0.253,2.604-0.748c0.617-0.497,0.928-1.164,0.928-2.008c0-0.734-0.256-1.361-0.764-1.872
			c-0.516-0.508-1.357-0.976-2.545-1.415c-3.227-1.195-4.843-2.947-4.843-5.25c0-1.506,0.563-2.744,1.706-3.705
			c1.141-0.96,2.65-1.441,4.532-1.441c1.678,0,3.074,0.292,4.189,0.869l-0.746,2.396c-1.04-0.56-2.222-0.845-3.54-0.845
			c-1.042,0-1.859,0.263-2.447,0.76c-0.491,0.46-0.738,1.014-0.738,1.666c0,0.721,0.283,1.322,0.848,1.801
			c0.494,0.433,1.389,0.903,2.68,1.41c1.593,0.63,2.757,1.379,3.508,2.235c0.746,0.853,1.122,1.912,1.122,3.181
			C107.743,38.975,107.194,40.249,106.107,41.224z M116.528,31.531h-3.263v6.432c0,1.632,0.579,2.442,1.729,2.442
			c0.529,0,0.963-0.039,1.312-0.128l0.084,2.227c-0.585,0.218-1.35,0.327-2.299,0.327c-1.162,0-2.081-0.349-2.735-1.062
			c-0.663-0.704-0.99-1.895-0.99-3.564v-6.673h-1.941v-2.203h1.941v-2.421l2.898-0.871v3.293h3.263V31.531z M114.861,20.182
			c-1.928,0-3.433-1.317-3.433-3.513c0-2.239,1.478-3.61,3.546-3.61c2.04,0,3.405,1.428,3.405,3.498
			C118.379,19.062,116.605,20.182,114.861,20.182z M128.656,40.849c-1.227,1.339-2.851,2.009-4.871,2.009
			c-1.956,0-3.517-0.643-4.674-1.932c-1.157-1.286-1.734-2.917-1.734-4.874c0-2.049,0.596-3.73,1.791-5.035
			c1.197-1.311,2.803-1.956,4.828-1.956c1.96,0,3.527,0.638,4.714,1.933c1.128,1.245,1.694,2.865,1.694,4.842
			C130.404,37.875,129.824,39.538,128.656,40.849z M131.711,13.213h0.971v-1.274l1.703-0.476v1.75h1.646V14.5h-1.646v3.009
			c0,0.84,0.225,1.26,0.886,1.26c0.31,0,0.478-0.015,0.676-0.07L135.975,20c-0.254,0.097-0.718,0.183-1.252,0.183
			c-0.648,0-1.169-0.211-1.492-0.56c-0.38-0.391-0.549-1.022-0.549-1.917V14.5h-0.971V13.213z M139.299,31.914
			c-0.291-0.052-0.604-0.075-0.931-0.075c-1.04,0-1.841,0.39-2.408,1.168c-0.494,0.692-0.739,1.55-0.739,2.611v6.941h-2.956V33.49
			c0-1.516-0.026-2.905-0.079-4.162h2.572l0.11,2.533h0.081c0.309-0.868,0.799-1.57,1.478-2.092
			c0.657-0.477,1.372-0.706,2.138-0.706c0.271,0,0.52,0.015,0.734,0.05V31.914z M139.747,15.941v4.086h-1.73v-9.934h1.73v4.043
			h0.028c0.211-0.321,0.507-0.588,0.858-0.769c0.352-0.197,0.76-0.308,1.196-0.308c1.168,0,2.393,0.769,2.393,2.952v4.015h-1.732
			v-3.833c0-0.98-0.366-1.736-1.322-1.736c-0.676,0-1.154,0.449-1.351,0.965C139.762,15.578,139.747,15.759,139.747,15.941z
			 M151.948,36.657h-8.87c0.035,1.305,0.464,2.3,1.288,2.988c0.746,0.619,1.712,0.928,2.899,0.928c1.316,0,2.509-0.208,3.586-0.631
			l0.466,2.044c-1.255,0.549-2.745,0.815-4.465,0.815c-2.058,0-3.678-0.6-4.854-1.806c-1.176-1.206-1.77-2.826-1.77-4.857
			c0-2,0.551-3.657,1.643-4.987c1.155-1.414,2.706-2.12,4.655-2.12c1.922,0,3.37,0.706,4.353,2.12
			c0.782,1.129,1.177,2.518,1.177,4.171C152.056,35.843,152.018,36.288,151.948,36.657z M90.848,14.401
			c-0.703,0-1.351,0.505-1.533,1.26c-0.029,0.126-0.058,0.28-0.058,0.448v1.105c0,0.14,0.015,0.281,0.043,0.407
			c0.183,0.698,0.788,1.203,1.533,1.203c1.084,0,1.745-0.855,1.745-2.239C92.578,15.382,92.001,14.401,90.848,14.401z
			 M103.305,14.234c-1.069,0-1.52,0.965-1.59,1.665h3.011C104.739,15.27,104.458,14.234,103.305,14.234z M114.932,14.304
			c-1.225,0-1.717,1.189-1.717,2.322c0,1.316,0.661,2.31,1.703,2.31c0.984,0,1.674-0.952,1.674-2.337
			C116.592,15.536,116.113,14.304,114.932,14.304z M81.629,17.97c0,0.672,0.437,0.981,0.984,0.981c0.704,0,1.196-0.449,1.365-0.938
			c0.042-0.126,0.042-0.253,0.042-0.379v-0.936C82.797,16.684,81.629,16.934,81.629,17.97z M148.939,14.234
			c-1.069,0-1.52,0.965-1.59,1.665h3.011C150.374,15.27,150.092,14.234,148.939,14.234z"/>
	</g>
</g>
<g>
	<g>
		<path fill="#CFE6DF" d="M11.761,170c-5.106,0-9.261-4.064-9.261-9.061V114.07c0-5.001,4.154-9.07,9.261-9.07h146.478
			c5.106,0,9.262,4.069,9.262,9.07v46.869c0,4.996-4.155,9.061-9.262,9.061H11.761z"/>
		<path fill="#CFE6DF" d="M158.238,107.5c3.729,0,6.762,2.946,6.762,6.57v46.87c0,3.618-3.033,6.56-6.762,6.56H11.761
			C8.033,167.5,5,164.558,5,160.94v-46.87c0-3.624,3.033-6.57,6.761-6.57H158.238 M158.238,102.5H11.761
			C5.276,102.5,0,107.69,0,114.07v46.87c0,6.374,5.276,11.56,11.761,11.56h146.477c6.486,0,11.762-5.186,11.762-11.56v-46.87
			C170,107.69,164.724,102.5,158.238,102.5L158.238,102.5z"/>
	</g>
</g>
<g>
	<g>
		<path fill="#C1C4CC" d="M158.275,97.5H11.724C8.017,97.5,5,100.446,5,104.07v46.87c0,3.618,3.017,6.56,6.724,6.56h146.552
			c3.708,0,6.725-2.942,6.725-6.56v-46.87C165,100.446,161.983,97.5,158.275,97.5z"/>
	</g>
	<rect x="15" y="98.5" fill="#66CCFF" width="140.881" height="40"/>
	<g>
		<path fill="#FAFAFA" d="M26.847,103.898h3.013c0.197,0,0.358-0.161,0.358-0.35c0-0.198-0.161-0.358-0.358-0.358h-3.013
			c-0.191,0-0.355,0.16-0.355,0.358C26.491,103.737,26.655,103.898,26.847,103.898z M28.353,130.158
			c-0.862,0-1.566,0.701-1.566,1.562c0,0.859,0.703,1.558,1.566,1.558c0.866,0,1.567-0.699,1.567-1.558
			C29.92,130.859,29.219,130.158,28.353,130.158z M20.666,128.822h15.376v-22.616H20.666V128.822z M69.965,121.395
			c-0.729,0-1.387,0.239-1.981,0.72c-0.595,0.488-0.98,1.118-1.164,1.899c-0.09,0.365-0.135,0.662-0.135,0.899v2.203
			c0,0.963,0.291,1.777,0.888,2.44c0.592,0.656,1.364,0.99,2.311,0.99c1.11,0,1.983-0.423,2.603-1.279
			c0.62-0.853,0.928-1.977,0.928-3.379c0-1.285-0.288-2.348-0.873-3.181C71.899,121.839,71.043,121.395,69.965,121.395z
			 M123.888,121.213c-1.183,0-2.087,0.523-2.704,1.573c-0.535,0.865-0.797,1.921-0.797,3.171c0,1.217,0.262,2.255,0.797,3.123
			c0.633,1.049,1.527,1.571,2.683,1.571c1.124,0,2.013-0.529,2.647-1.604c0.552-0.878,0.826-1.931,0.826-3.141
			s-0.264-2.254-0.79-3.12C125.921,121.735,125.039,121.213,123.888,121.213z M84.584,121.395c-0.732,0-1.387,0.239-1.982,0.72
			c-0.593,0.488-0.982,1.118-1.166,1.899c-0.091,0.365-0.134,0.662-0.134,0.899v2.203c0,0.963,0.292,1.777,0.888,2.44
			c0.592,0.656,1.364,0.99,2.309,0.99c1.119,0,1.984-0.423,2.605-1.279c0.622-0.853,0.934-1.977,0.934-3.379
			c0-1.285-0.294-2.348-0.876-3.181C86.518,121.839,85.659,121.395,84.584,121.395z M54.037,116.662h-0.052
			c-0.186,0.781-0.474,1.931-0.879,3.458l-1.533,4.792h4.953l-1.554-4.792C54.805,119.628,54.491,118.475,54.037,116.662z
			 M146.308,121.069c-0.965,0-1.749,0.41-2.354,1.203c-0.492,0.633-0.787,1.397-0.876,2.281h6.158
			c0.016-0.868-0.172-1.618-0.572-2.257C148.15,121.484,147.364,121.069,146.308,121.069z M67.074,108.013
			c0.041-0.126,0.041-0.253,0.041-0.379v-0.936c-1.224-0.014-2.391,0.237-2.391,1.272c0,0.672,0.436,0.981,0.984,0.981
			C66.412,108.951,66.904,108.502,67.074,108.013z M50.943,103.73c-0.184-0.574-0.338-1.217-0.479-1.763h-0.029
			c-0.14,0.546-0.295,1.202-0.45,1.763l-0.73,2.323h2.434L50.943,103.73z M158.275,90H11.724C8.017,90,5,92.999,5,96.688v41.634
			C5,142.005,8.017,145,11.724,145h146.552c3.708,0,6.725-2.995,6.725-6.678V96.688C165,92.999,161.983,90,158.275,90z
			 M149.037,103.059c2.223,0,2.955,1.818,2.955,3.316c0,0.322-0.028,0.575-0.057,0.728h-4.587c0.042,1.231,0.999,1.762,2.11,1.762
			c0.802,0,1.365-0.124,1.899-0.307l0.253,1.175c-0.591,0.252-1.406,0.433-2.392,0.433c-2.223,0-3.531-1.356-3.531-3.441
			C145.689,104.836,146.842,103.059,149.037,103.059z M121.576,103.213l0.084,1.022h0.043c0.309-0.532,1.055-1.175,2.194-1.175
			c1.196,0,2.435,0.769,2.435,2.923v4.044h-1.73v-3.848c0-0.979-0.366-1.721-1.309-1.721c-0.689,0-1.168,0.49-1.352,1.008
			c-0.057,0.14-0.084,0.35-0.084,0.546v4.015h-1.73v-4.784c0-0.785-0.028-1.441-0.057-2.03H121.576z M103.403,103.059
			c2.223,0,2.955,1.818,2.955,3.316c0,0.322-0.028,0.575-0.057,0.728h-4.587c0.042,1.231,0.999,1.762,2.11,1.762
			c0.802,0,1.364-0.124,1.899-0.307l0.253,1.175c-0.591,0.252-1.406,0.433-2.392,0.433c-2.223,0-3.531-1.356-3.531-3.441
			C100.055,104.836,101.208,103.059,103.403,103.059z M96.311,100.093h1.729v9.934h-1.729V100.093z M82.586,104.275
			c-0.676,0-1.379,0.212-1.843,0.505l-0.338-1.12c0.506-0.308,1.393-0.601,2.476-0.601c2.195,0,2.829,1.385,2.829,2.882v2.449
			c0,0.616,0.027,1.217,0.111,1.637H84.26l-0.126-0.755h-0.042c-0.408,0.531-1.126,0.91-2.026,0.91c-1.38,0-2.153-0.995-2.153-2.03
			c0-1.707,1.533-2.589,4.066-2.575v-0.112C83.979,105.018,83.795,104.275,82.586,104.275z M72.354,100.372
			c0.591,0,0.957,0.407,0.971,0.937c0,0.504-0.38,0.925-0.985,0.925c-0.577,0-0.956-0.42-0.956-0.925
			C71.383,100.779,71.776,100.372,72.354,100.372z M73.211,103.213v6.814h-1.729v-6.814H73.211z M49.409,100.596h2.209l3.081,9.431
			h-1.871l-0.857-2.673h-2.998l-0.816,2.673h-1.787L49.409,100.596z M37.885,131.87c0,1.662-1.362,3.009-3.032,3.009H21.857
			c-1.672,0-3.034-1.347-3.034-3.009v-28.719c0-1.662,1.362-3.013,3.034-3.013h12.995c1.67,0,3.032,1.351,3.032,3.013V131.87z
			 M58.774,132.559l-1.723-5.385h-5.996l-1.644,5.385h-3.062l5.934-18.348h3.672l5.97,18.348H58.774z M59.445,110.027h-1.703
			l-2.547-6.814h1.872l1.11,3.457c0.197,0.601,0.338,1.147,0.465,1.707h0.043c0.126-0.56,0.281-1.093,0.464-1.707l1.098-3.457h1.815
			L59.445,110.027z M63.008,108.152c0-1.707,1.533-2.589,4.066-2.575v-0.112c0-0.448-0.184-1.191-1.394-1.191
			c-0.676,0-1.378,0.212-1.843,0.505l-0.338-1.12c0.506-0.308,1.393-0.601,2.477-0.601c2.194,0,2.828,1.385,2.828,2.882v2.449
			c0,0.616,0.027,1.217,0.112,1.637h-1.562l-0.126-0.755h-0.042c-0.408,0.531-1.126,0.91-2.026,0.91
			C63.781,110.182,63.008,109.188,63.008,108.152z M74.582,131.121c-1.099,1.157-2.469,1.738-4.1,1.738
			c-1.766,0-3.029-0.625-3.798-1.881v6.948H63.73v-14.249c0-1.415-0.038-2.862-0.113-4.348h2.601l0.163,2.096h0.052
			c0.99-1.573,2.484-2.362,4.494-2.362c1.569,0,2.875,0.612,3.931,1.849c1.046,1.232,1.572,2.859,1.572,4.872
			C76.43,128.04,75.815,129.812,74.582,131.121z M77.658,110.027h-1.729v-9.934h1.729V110.027z M89.197,131.121
			c-1.102,1.157-2.466,1.738-4.101,1.738c-1.761,0-3.026-0.625-3.795-1.881v6.948h-2.957v-14.249c0-1.415-0.038-2.862-0.109-4.348
			h2.594L81,121.424h0.051c0.992-1.573,2.483-2.362,4.49-2.362c1.57,0,2.88,0.612,3.929,1.849c1.052,1.232,1.575,2.859,1.575,4.872
			C91.045,128.04,90.431,129.812,89.197,131.121z M91.228,110.182c-0.887,0-1.675-0.336-2.167-1.176h-0.028l-0.084,1.021h-1.478
			c0.028-0.461,0.057-1.216,0.057-1.917v-8.017h1.729v4.057h0.028c0.422-0.658,1.168-1.091,2.195-1.091
			c1.675,0,2.87,1.385,2.856,3.456C94.337,108.964,92.775,110.182,91.228,110.182z M106.107,131.224
			c-1.208,1.072-2.881,1.604-5.027,1.604c-1.989,0-3.58-0.383-4.781-1.141l0.687-2.449c1.295,0.758,2.717,1.143,4.265,1.143
			c1.118,0,1.982-0.253,2.604-0.748c0.617-0.497,0.928-1.164,0.928-2.008c0-0.734-0.256-1.361-0.764-1.872
			c-0.516-0.508-1.357-0.976-2.545-1.415c-3.227-1.195-4.843-2.947-4.843-5.25c0-1.506,0.563-2.744,1.706-3.705
			c1.141-0.96,2.65-1.441,4.532-1.441c1.678,0,3.074,0.292,4.189,0.869l-0.746,2.396c-1.04-0.56-2.222-0.845-3.54-0.845
			c-1.042,0-1.859,0.263-2.447,0.76c-0.491,0.46-0.738,1.014-0.738,1.666c0,0.721,0.283,1.322,0.848,1.801
			c0.494,0.433,1.389,0.903,2.68,1.41c1.593,0.63,2.757,1.379,3.508,2.235c0.746,0.853,1.122,1.912,1.122,3.181
			C107.743,128.975,107.194,130.249,106.107,131.224z M116.528,121.531h-3.263v6.432c0,1.632,0.579,2.442,1.729,2.442
			c0.529,0,0.963-0.039,1.312-0.128l0.084,2.227c-0.585,0.217-1.35,0.327-2.299,0.327c-1.162,0-2.081-0.349-2.735-1.062
			c-0.663-0.704-0.99-1.895-0.99-3.564v-6.673h-1.941v-2.203h1.941v-2.421l2.898-0.871v3.293h3.263V121.531z M114.861,110.182
			c-1.928,0-3.433-1.317-3.433-3.513c0-2.239,1.478-3.61,3.546-3.61c2.04,0,3.405,1.428,3.405,3.498
			C118.379,109.062,116.605,110.182,114.861,110.182z M128.656,130.849c-1.227,1.339-2.851,2.009-4.871,2.009
			c-1.956,0-3.517-0.643-4.674-1.932c-1.157-1.286-1.734-2.917-1.734-4.874c0-2.049,0.596-3.73,1.791-5.035
			c1.197-1.311,2.803-1.956,4.828-1.956c1.96,0,3.527,0.638,4.714,1.933c1.128,1.245,1.694,2.865,1.694,4.842
			C130.404,127.875,129.824,129.538,128.656,130.849z M131.711,103.213h0.971v-1.274l1.703-0.476v1.75h1.646v1.287h-1.646v3.009
			c0,0.84,0.225,1.26,0.886,1.26c0.31,0,0.478-0.015,0.676-0.07l0.028,1.301c-0.254,0.097-0.718,0.183-1.252,0.183
			c-0.648,0-1.169-0.211-1.492-0.56c-0.38-0.391-0.549-1.022-0.549-1.917V104.5h-0.971V103.213z M139.299,121.914
			c-0.291-0.052-0.604-0.075-0.931-0.075c-1.04,0-1.841,0.39-2.408,1.168c-0.494,0.692-0.739,1.55-0.739,2.611v6.941h-2.956v-9.069
			c0-1.516-0.026-2.905-0.079-4.162h2.572l0.11,2.533h0.081c0.309-0.868,0.799-1.57,1.478-2.092
			c0.657-0.477,1.372-0.706,2.138-0.706c0.271,0,0.52,0.015,0.734,0.05V121.914z M139.747,105.941v4.086h-1.73v-9.934h1.73v4.043
			h0.028c0.211-0.321,0.507-0.588,0.858-0.769c0.352-0.197,0.76-0.308,1.196-0.308c1.168,0,2.393,0.769,2.393,2.952v4.015h-1.732
			v-3.833c0-0.98-0.366-1.736-1.322-1.736c-0.676,0-1.154,0.449-1.351,0.965C139.762,105.578,139.747,105.759,139.747,105.941z
			 M151.948,126.657h-8.87c0.035,1.305,0.464,2.3,1.288,2.989c0.746,0.619,1.712,0.928,2.899,0.928c1.316,0,2.509-0.208,3.586-0.631
			l0.466,2.044c-1.255,0.549-2.745,0.815-4.465,0.815c-2.058,0-3.678-0.6-4.854-1.806c-1.176-1.206-1.77-2.826-1.77-4.857
			c0-2,0.551-3.657,1.643-4.987c1.155-1.414,2.706-2.12,4.655-2.12c1.922,0,3.37,0.706,4.353,2.12
			c0.782,1.129,1.177,2.518,1.177,4.171C152.056,125.843,152.018,126.288,151.948,126.657z M90.848,104.401
			c-0.703,0-1.351,0.505-1.533,1.26c-0.029,0.126-0.058,0.28-0.058,0.448v1.105c0,0.14,0.015,0.281,0.043,0.407
			c0.183,0.698,0.788,1.203,1.533,1.203c1.084,0,1.745-0.855,1.745-2.239C92.578,105.382,92.001,104.401,90.848,104.401z
			 M103.305,104.234c-1.069,0-1.52,0.965-1.59,1.665h3.011C104.739,105.27,104.458,104.234,103.305,104.234z M114.932,104.304
			c-1.225,0-1.717,1.189-1.717,2.322c0,1.316,0.661,2.31,1.703,2.31c0.984,0,1.674-0.952,1.674-2.337
			C116.592,105.536,116.113,104.304,114.932,104.304z M81.629,107.97c0,0.672,0.437,0.981,0.984,0.981
			c0.704,0,1.196-0.449,1.365-0.938c0.042-0.126,0.042-0.253,0.042-0.379v-0.936C82.797,106.684,81.629,106.934,81.629,107.97z
			 M148.939,104.234c-1.069,0-1.52,0.965-1.59,1.665h3.011C150.374,105.27,150.092,104.234,148.939,104.234z"/>
	</g>
</g>
<g>
	<g>
		<path fill="#CFE6DF" d="M11.761,250c-5.106,0-9.261-4.064-9.261-9.061V207.07c0-5.001,4.154-9.07,9.261-9.07h146.478
			c5.106,0,9.262,4.069,9.262,9.07v33.869c0,4.996-4.155,9.061-9.262,9.061H11.761z"/>
		<path fill="#CFE6DF" d="M158.238,200.5c3.729,0,6.762,2.946,6.762,6.57v33.87c0,3.618-3.033,6.56-6.762,6.56H11.761
			C8.033,247.5,5,244.558,5,240.94v-33.87c0-3.624,3.033-6.57,6.761-6.57H158.238 M158.238,195.5H11.761
			C5.276,195.5,0,200.69,0,207.07v33.87c0,6.374,5.276,11.56,11.761,11.56h146.477c6.486,0,11.762-5.186,11.762-11.56v-33.87
			C170,200.69,164.724,195.5,158.238,195.5L158.238,195.5z"/>
	</g>
</g>
<g>
	<rect x="15" y="202.5" fill="#FAFAFA" width="140.881" height="40"/>
	<g>
		<path fill="#66CCFF" d="M26.847,206.898h3.013c0.197,0,0.358-0.161,0.358-0.35c0-0.198-0.161-0.358-0.358-0.358h-3.013
			c-0.191,0-0.355,0.16-0.355,0.358C26.491,206.737,26.655,206.898,26.847,206.898z M28.353,233.158
			c-0.862,0-1.566,0.701-1.566,1.562c0,0.859,0.703,1.558,1.566,1.558c0.866,0,1.567-0.699,1.567-1.558
			C29.92,233.859,29.219,233.158,28.353,233.158z M20.666,231.822h15.376v-22.616H20.666V231.822z M69.965,224.395
			c-0.729,0-1.387,0.239-1.981,0.72c-0.595,0.488-0.98,1.118-1.164,1.899c-0.09,0.365-0.135,0.662-0.135,0.899v2.203
			c0,0.963,0.291,1.777,0.888,2.44c0.592,0.656,1.364,0.99,2.311,0.99c1.11,0,1.983-0.423,2.603-1.279
			c0.62-0.853,0.928-1.977,0.928-3.379c0-1.285-0.288-2.348-0.873-3.181C71.899,224.839,71.043,224.395,69.965,224.395z
			 M123.888,224.213c-1.183,0-2.087,0.523-2.704,1.573c-0.535,0.865-0.797,1.921-0.797,3.171c0,1.217,0.262,2.255,0.797,3.123
			c0.633,1.049,1.527,1.571,2.683,1.571c1.124,0,2.013-0.529,2.647-1.604c0.552-0.878,0.826-1.931,0.826-3.141
			s-0.264-2.254-0.79-3.12C125.921,224.735,125.039,224.213,123.888,224.213z M84.584,224.395c-0.732,0-1.387,0.239-1.982,0.72
			c-0.593,0.488-0.982,1.118-1.166,1.899c-0.091,0.365-0.134,0.662-0.134,0.899v2.203c0,0.963,0.292,1.777,0.888,2.44
			c0.592,0.656,1.364,0.99,2.309,0.99c1.119,0,1.984-0.423,2.605-1.279c0.622-0.853,0.934-1.977,0.934-3.379
			c0-1.285-0.294-2.348-0.876-3.181C86.518,224.839,85.659,224.395,84.584,224.395z M54.037,219.662h-0.052
			c-0.186,0.781-0.474,1.931-0.879,3.458l-1.533,4.792h4.953l-1.554-4.792C54.805,222.628,54.491,221.475,54.037,219.662z
			 M146.308,224.069c-0.965,0-1.749,0.41-2.354,1.203c-0.492,0.633-0.787,1.397-0.876,2.281h6.158
			c0.016-0.868-0.172-1.618-0.572-2.257C148.15,224.484,147.364,224.069,146.308,224.069z M67.074,211.013
			c0.041-0.126,0.041-0.253,0.041-0.379v-0.936c-1.224-0.014-2.391,0.237-2.391,1.272c0,0.672,0.436,0.981,0.984,0.981
			C66.412,211.951,66.904,211.502,67.074,211.013z M50.943,206.73c-0.184-0.574-0.338-1.217-0.479-1.763h-0.029
			c-0.14,0.546-0.295,1.202-0.45,1.763l-0.73,2.323h2.434L50.943,206.73z M158.275,193H11.724C8.017,193,5,195.999,5,199.688v41.634
			C5,245.005,8.017,248,11.724,248h146.552c3.708,0,6.725-2.995,6.725-6.678v-41.634C165,195.999,161.983,193,158.275,193z
			 M149.037,206.059c2.223,0,2.955,1.818,2.955,3.316c0,0.322-0.028,0.575-0.057,0.728h-4.587c0.042,1.231,0.999,1.762,2.11,1.762
			c0.802,0,1.365-0.124,1.899-0.307l0.253,1.175c-0.591,0.252-1.406,0.433-2.392,0.433c-2.223,0-3.531-1.356-3.531-3.441
			C145.689,207.836,146.842,206.059,149.037,206.059z M121.576,206.213l0.084,1.022h0.043c0.309-0.532,1.055-1.175,2.194-1.175
			c1.196,0,2.435,0.769,2.435,2.923v4.044h-1.73v-3.848c0-0.979-0.366-1.721-1.309-1.721c-0.689,0-1.168,0.49-1.352,1.008
			c-0.057,0.14-0.084,0.35-0.084,0.546v4.015h-1.73v-4.784c0-0.785-0.028-1.441-0.057-2.03H121.576z M103.403,206.059
			c2.223,0,2.955,1.818,2.955,3.316c0,0.322-0.028,0.575-0.057,0.728h-4.587c0.042,1.231,0.999,1.762,2.11,1.762
			c0.802,0,1.364-0.124,1.899-0.307l0.253,1.175c-0.591,0.252-1.406,0.433-2.392,0.433c-2.223,0-3.531-1.356-3.531-3.441
			C100.055,207.836,101.208,206.059,103.403,206.059z M96.311,203.093h1.729v9.934h-1.729V203.093z M82.586,207.275
			c-0.676,0-1.379,0.212-1.843,0.505l-0.338-1.12c0.506-0.308,1.393-0.601,2.476-0.601c2.195,0,2.829,1.385,2.829,2.882v2.449
			c0,0.616,0.027,1.217,0.111,1.637H84.26l-0.126-0.755h-0.042c-0.408,0.531-1.126,0.91-2.026,0.91c-1.38,0-2.153-0.995-2.153-2.03
			c0-1.707,1.533-2.589,4.066-2.575v-0.112C83.979,208.018,83.795,207.275,82.586,207.275z M72.354,203.372
			c0.591,0,0.957,0.407,0.971,0.937c0,0.504-0.38,0.925-0.985,0.925c-0.577,0-0.956-0.421-0.956-0.925
			C71.383,203.779,71.776,203.372,72.354,203.372z M73.211,206.213v6.814h-1.729v-6.814H73.211z M49.409,203.596h2.209l3.081,9.431
			h-1.871l-0.857-2.673h-2.998l-0.816,2.673h-1.787L49.409,203.596z M37.885,234.87c0,1.662-1.362,3.009-3.032,3.009H21.857
			c-1.672,0-3.034-1.347-3.034-3.009v-28.719c0-1.662,1.362-3.013,3.034-3.013h12.995c1.67,0,3.032,1.351,3.032,3.013V234.87z
			 M58.774,235.559l-1.723-5.385h-5.996l-1.644,5.385h-3.062l5.934-18.348h3.672l5.97,18.348H58.774z M59.445,213.027h-1.703
			l-2.547-6.814h1.872l1.11,3.457c0.197,0.601,0.338,1.147,0.465,1.707h0.043c0.126-0.56,0.281-1.093,0.464-1.707l1.098-3.457h1.815
			L59.445,213.027z M63.008,211.152c0-1.707,1.533-2.589,4.066-2.575v-0.112c0-0.448-0.184-1.191-1.394-1.191
			c-0.676,0-1.378,0.212-1.843,0.505l-0.338-1.12c0.506-0.308,1.393-0.601,2.477-0.601c2.194,0,2.828,1.385,2.828,2.882v2.449
			c0,0.616,0.027,1.217,0.112,1.637h-1.562l-0.126-0.755h-0.042c-0.408,0.531-1.126,0.91-2.026,0.91
			C63.781,213.182,63.008,212.188,63.008,211.152z M74.582,234.121c-1.099,1.157-2.469,1.738-4.1,1.738
			c-1.766,0-3.029-0.625-3.798-1.881v6.948H63.73v-14.249c0-1.415-0.038-2.862-0.113-4.348h2.601l0.163,2.096h0.052
			c0.99-1.573,2.484-2.362,4.494-2.362c1.569,0,2.875,0.612,3.931,1.849c1.046,1.232,1.572,2.859,1.572,4.872
			C76.43,231.04,75.815,232.812,74.582,234.121z M77.658,213.027h-1.729v-9.934h1.729V213.027z M89.197,234.121
			c-1.102,1.157-2.466,1.738-4.101,1.738c-1.761,0-3.026-0.625-3.795-1.881v6.948h-2.957v-14.249c0-1.415-0.038-2.862-0.109-4.348
			h2.594L81,224.424h0.051c0.992-1.573,2.483-2.362,4.49-2.362c1.57,0,2.88,0.612,3.929,1.849c1.052,1.232,1.575,2.859,1.575,4.872
			C91.045,231.04,90.431,232.812,89.197,234.121z M91.228,213.182c-0.887,0-1.675-0.336-2.167-1.176h-0.028l-0.084,1.021h-1.478
			c0.028-0.461,0.057-1.216,0.057-1.917v-8.017h1.729v4.057h0.028c0.422-0.658,1.168-1.091,2.195-1.091
			c1.675,0,2.87,1.385,2.856,3.456C94.337,211.964,92.775,213.182,91.228,213.182z M106.107,234.224
			c-1.208,1.072-2.881,1.604-5.027,1.604c-1.989,0-3.58-0.383-4.781-1.141l0.687-2.449c1.295,0.758,2.717,1.143,4.265,1.143
			c1.118,0,1.982-0.253,2.604-0.748c0.617-0.497,0.928-1.164,0.928-2.008c0-0.734-0.256-1.361-0.764-1.872
			c-0.516-0.508-1.357-0.976-2.545-1.415c-3.227-1.195-4.843-2.947-4.843-5.25c0-1.506,0.563-2.744,1.706-3.705
			c1.141-0.96,2.65-1.441,4.532-1.441c1.678,0,3.074,0.292,4.189,0.869l-0.746,2.396c-1.04-0.56-2.222-0.845-3.54-0.845
			c-1.042,0-1.859,0.263-2.447,0.76c-0.491,0.46-0.738,1.014-0.738,1.666c0,0.721,0.283,1.322,0.848,1.801
			c0.494,0.433,1.389,0.903,2.68,1.41c1.593,0.63,2.757,1.379,3.508,2.235c0.746,0.853,1.122,1.912,1.122,3.181
			C107.743,231.975,107.194,233.249,106.107,234.224z M116.528,224.531h-3.263v6.432c0,1.632,0.579,2.442,1.729,2.442
			c0.529,0,0.963-0.039,1.312-0.128l0.084,2.227c-0.585,0.217-1.35,0.327-2.299,0.327c-1.162,0-2.081-0.349-2.735-1.062
			c-0.663-0.704-0.99-1.895-0.99-3.564v-6.673h-1.941v-2.203h1.941v-2.421l2.898-0.871v3.293h3.263V224.531z M114.861,213.182
			c-1.928,0-3.433-1.317-3.433-3.513c0-2.239,1.478-3.61,3.546-3.61c2.04,0,3.405,1.428,3.405,3.498
			C118.379,212.062,116.605,213.182,114.861,213.182z M128.656,233.849c-1.227,1.339-2.851,2.009-4.871,2.009
			c-1.956,0-3.517-0.643-4.674-1.932c-1.157-1.286-1.734-2.917-1.734-4.874c0-2.049,0.596-3.73,1.791-5.035
			c1.197-1.311,2.803-1.956,4.828-1.956c1.96,0,3.527,0.638,4.714,1.933c1.128,1.245,1.694,2.865,1.694,4.842
			C130.404,230.875,129.824,232.538,128.656,233.849z M131.711,206.213h0.971v-1.274l1.703-0.476v1.75h1.646v1.287h-1.646v3.009
			c0,0.84,0.225,1.26,0.886,1.26c0.31,0,0.478-0.015,0.676-0.07l0.028,1.301c-0.254,0.097-0.718,0.183-1.252,0.183
			c-0.648,0-1.169-0.211-1.492-0.56c-0.38-0.391-0.549-1.022-0.549-1.917V207.5h-0.971V206.213z M139.299,224.914
			c-0.291-0.052-0.604-0.075-0.931-0.075c-1.04,0-1.841,0.39-2.408,1.168c-0.494,0.691-0.739,1.55-0.739,2.611v6.941h-2.956v-9.069
			c0-1.516-0.026-2.905-0.079-4.162h2.572l0.11,2.533h0.081c0.309-0.868,0.799-1.57,1.478-2.092
			c0.657-0.477,1.372-0.706,2.138-0.706c0.271,0,0.52,0.015,0.734,0.05V224.914z M139.747,208.941v4.086h-1.73v-9.934h1.73v4.043
			h0.028c0.211-0.321,0.507-0.588,0.858-0.769c0.352-0.197,0.76-0.308,1.196-0.308c1.168,0,2.393,0.769,2.393,2.952v4.015h-1.732
			v-3.833c0-0.98-0.366-1.736-1.322-1.736c-0.676,0-1.154,0.449-1.351,0.965C139.762,208.578,139.747,208.759,139.747,208.941z
			 M151.948,229.657h-8.87c0.035,1.305,0.464,2.3,1.288,2.988c0.746,0.619,1.712,0.928,2.899,0.928c1.316,0,2.509-0.208,3.586-0.631
			l0.466,2.044c-1.255,0.549-2.745,0.815-4.465,0.815c-2.058,0-3.678-0.6-4.854-1.806c-1.176-1.206-1.77-2.826-1.77-4.857
			c0-2,0.551-3.657,1.643-4.987c1.155-1.414,2.706-2.12,4.655-2.12c1.922,0,3.37,0.706,4.353,2.12
			c0.782,1.129,1.177,2.518,1.177,4.171C152.056,228.843,152.018,229.288,151.948,229.657z M90.848,207.401
			c-0.703,0-1.351,0.505-1.533,1.26c-0.029,0.126-0.058,0.28-0.058,0.448v1.105c0,0.14,0.015,0.281,0.043,0.407
			c0.183,0.698,0.788,1.203,1.533,1.203c1.084,0,1.745-0.855,1.745-2.239C92.578,208.382,92.001,207.401,90.848,207.401z
			 M103.305,207.234c-1.069,0-1.52,0.965-1.59,1.665h3.011C104.739,208.27,104.458,207.234,103.305,207.234z M114.932,207.304
			c-1.225,0-1.717,1.189-1.717,2.322c0,1.316,0.661,2.31,1.703,2.31c0.984,0,1.674-0.952,1.674-2.337
			C116.592,208.536,116.113,207.304,114.932,207.304z M81.629,210.97c0,0.672,0.437,0.981,0.984,0.981
			c0.704,0,1.196-0.449,1.365-0.938c0.042-0.126,0.042-0.253,0.042-0.379v-0.936C82.797,209.684,81.629,209.934,81.629,210.97z
			 M148.939,207.234c-1.069,0-1.52,0.965-1.59,1.665h3.011C150.374,208.27,150.092,207.234,148.939,207.234z"/>
	</g>
</g>
</svg>
